# xmcd
#
# Track frame offsets: 
#        150
#        22499
#        39924
#        55444
#        71588
#        88863
#        105136
#        125440
#
# Disc length: 1859 seconds
#
# Revision: 0
# Processed by: cddbd v1.5.2PL0 Copyright (c) Steve Scherf et al.
# Submitted via: ExactAudioCopy v1.1
#
DISCID=69074108
DTITLE=Rocky Mizell - The Sugar Rock Band
DYEAR=1977
DGENRE=Soul
TTITLE0=Never Never Girl
TTITLE1=Shake Your Body Down
TTITLE2=This Must Be Love
TTITLE3=Come To Me
TTITLE4=Hey Sexy Dancer
TTITLE5=If You Don't Mind I Don't Mind
TTITLE6=You're Sweeter Than The Taste Of Honey
TTITLE7=Take It Easy Babe
EXTD=
EXTT0=
EXTT1=
EXTT2=
EXTT3=
EXTT4=
EXTT5=
EXTT6=
EXTT7=
PLAYORDER=
